<?xml version="1.0" encoding="UTF-8" standalone="no"?>
<!-- Generator: Adobe Illustrator 18.0.0, SVG Export Plug-In . SVG Version: 6.00 Build 0)  -->

<svg
   xmlns:dc="http://purl.org/dc/elements/1.1/"
   xmlns:cc="http://creativecommons.org/ns#"
   xmlns:rdf="http://www.w3.org/1999/02/22-rdf-syntax-ns#"
   xmlns:svg="http://www.w3.org/2000/svg"
   xmlns="http://www.w3.org/2000/svg"
   xmlns:xlink="http://www.w3.org/1999/xlink"
   xmlns:sodipodi="http://sodipodi.sourceforge.net/DTD/sodipodi-0.dtd"
   xmlns:inkscape="http://www.inkscape.org/namespaces/inkscape"
   version="1.1"
   id="Layer_1"
   x="0px"
   y="0px"
   viewBox="0 0 500 500"
   enable-background="new 0 0 500 500"
   xml:space="preserve"
   inkscape:version="0.48.3.1 r9886"
   width="100%"
   height="100%"
   sodipodi:docname="gestion final.svg"><metadata
   id="metadata72"><rdf:RDF><cc:Work
       rdf:about=""><dc:format>image/svg+xml</dc:format><dc:type
         rdf:resource="http://purl.org/dc/dcmitype/StillImage" /></cc:Work></rdf:RDF></metadata><defs
   id="defs70">
	
		<linearGradient
   gradientTransform="matrix(0.7071,-0.7071,0.7071,0.7071,-406.1895,502.3818)"
   y2="338.8214"
   x2="667.1254"
   y1="382.567"
   x1="787.831"
   gradientUnits="userSpaceOnUse"
   id="SVGID_1_">
		<stop
   id="stop6"
   style="stop-color:#000000"
   offset="0" />
		<stop
   id="stop8"
   style="stop-color:#1ED6AA"
   offset="0.3553" />
		<stop
   id="stop10"
   style="stop-color:#18AA87"
   offset="0.8731" />
	</linearGradient>
	
	
	
	
		<linearGradient
   gradientTransform="matrix(0.7071,-0.7071,0.7071,0.7071,-406.1895,502.3818)"
   y2="311.5343"
   x2="655.7969"
   y1="401.4583"
   x1="653.7716"
   gradientUnits="userSpaceOnUse"
   id="SVGID_2_">
		<stop
   id="stop19"
   style="stop-color:#489C82"
   offset="0" />
		<stop
   id="stop21"
   style="stop-color:#66B19B"
   offset="0.4974" />
		<stop
   id="stop23"
   style="stop-color:#6BB59F"
   offset="0.5736" />
	</linearGradient>
	
	
		<linearGradient
   gradientTransform="matrix(0.7071,-0.7071,0.7071,0.7071,-406.1895,502.3818)"
   y2="353.181"
   x2="665.2926"
   y1="420.0164"
   x1="669.3432"
   gradientUnits="userSpaceOnUse"
   id="SVGID_3_">
		<stop
   id="stop28"
   style="stop-color:#418C75"
   offset="0.1218" />
		<stop
   id="stop30"
   style="stop-color:#54B598"
   offset="0.6447" />
		<stop
   id="stop32"
   style="stop-color:#76B5A2"
   offset="0.8426" />
	</linearGradient>
	
	
	
	
	
	
	
	
	
		<linearGradient
   gradientTransform="matrix(0.4539,0.4539,-0.7071,0.7071,725.9112,11.861)"
   y2="384.902"
   x2="-187.6448"
   y1="384.902"
   x1="-214.8642"
   gradientUnits="userSpaceOnUse"
   id="SVGID_4_">
		<stop
   id="stop51"
   style="stop-color:#418C75"
   offset="0.1218" />
		<stop
   id="stop53"
   style="stop-color:#54B598"
   offset="0.6447" />
		<stop
   id="stop55"
   style="stop-color:#76B5A2"
   offset="0.8426" />
	</linearGradient>
	
	
		<linearGradient
   gradientTransform="matrix(-0.4539,-0.4539,0.7071,-0.7071,163.4673,1454.761)"
   y2="1030.26"
   x2="1082.7688"
   y1="1030.26"
   x1="1055.5494"
   gradientUnits="userSpaceOnUse"
   id="SVGID_5_">
		<stop
   id="stop60"
   style="stop-color:#418C75"
   offset="0.1218" />
		<stop
   id="stop62"
   style="stop-color:#54B598"
   offset="0.6447" />
		<stop
   id="stop64"
   style="stop-color:#76B5A2"
   offset="0.8426" />
	</linearGradient>
	
<linearGradient
   inkscape:collect="always"
   xlink:href="#SVGID_1_"
   id="linearGradient3099"
   gradientUnits="userSpaceOnUse"
   gradientTransform="matrix(0.7071,-0.7071,0.7071,0.7071,-406.1895,502.3818)"
   x1="787.831"
   y1="382.567"
   x2="667.1254"
   y2="338.8214" /><linearGradient
   inkscape:collect="always"
   xlink:href="#SVGID_2_"
   id="linearGradient3101"
   gradientUnits="userSpaceOnUse"
   gradientTransform="matrix(0.7071,-0.7071,0.7071,0.7071,-406.1895,502.3818)"
   x1="653.7716"
   y1="401.4583"
   x2="655.7969"
   y2="311.5343" /><linearGradient
   inkscape:collect="always"
   xlink:href="#SVGID_3_"
   id="linearGradient3103"
   gradientUnits="userSpaceOnUse"
   gradientTransform="matrix(0.7071,-0.7071,0.7071,0.7071,-406.1895,502.3818)"
   x1="669.3432"
   y1="420.0164"
   x2="665.2926"
   y2="353.181" /><linearGradient
   inkscape:collect="always"
   xlink:href="#SVGID_4_"
   id="linearGradient3105"
   gradientUnits="userSpaceOnUse"
   gradientTransform="matrix(0.4539,0.4539,-0.7071,0.7071,725.9112,11.861)"
   x1="-214.8642"
   y1="384.902"
   x2="-187.6448"
   y2="384.902" /><linearGradient
   inkscape:collect="always"
   xlink:href="#SVGID_5_"
   id="linearGradient3107"
   gradientUnits="userSpaceOnUse"
   gradientTransform="matrix(-0.4539,-0.4539,0.7071,-0.7071,163.4673,1454.761)"
   x1="1055.5494"
   y1="1030.26"
   x2="1082.7688"
   y2="1030.26" /></defs><sodipodi:namedview
   pagecolor="#ffffff"
   bordercolor="#666666"
   borderopacity="1"
   objecttolerance="10"
   gridtolerance="10"
   guidetolerance="10"
   inkscape:pageopacity="0"
   inkscape:pageshadow="2"
   inkscape:window-width="1060"
   inkscape:window-height="581"
   id="namedview68"
   showgrid="false"
   inkscape:zoom="0.472"
   inkscape:cx="250"
   inkscape:cy="250"
   inkscape:window-x="0"
   inkscape:window-y="24"
   inkscape:window-maximized="0"
   inkscape:current-layer="Layer_1" />
<g
   id="g3089"
   transform="matrix(3.2728459,0,0,3.2761619,-891.57163,-569.01296)"><path
     d="M 397.7,262.5 363.5,296.7 317,284.2 304.6,238.1 365.7,177 c -3,-1 -4.9,-0.4 -7.1,0.2 L 304,191.4 c -6.7,1.8 -12,6.9 -13.8,13.5 l -14.7,54.3 c -1.8,6.6 0.1,13.7 4.9,18.6 l 39.7,39.9 c 4.9,4.9 12,6.8 18.6,5 l 54.4,-14.4 c 6.7,-1.8 11.9,-7 13.7,-13.6 l 14.7,-54.4 c 0.3,-1.1 0.5,-2.1 0.6,-3.2 l -24.3,25.2"
     id="path12"
     style="fill:url(#linearGradient3099)"
     inkscape:connector-curvature="0" /><path
     d="m 422.1,237.1 c 0,0 0,0.1 0,0.1 l 0,0 c 0,-0.1 0,-0.1 0,-0.1 z"
     id="path14"
     inkscape:connector-curvature="0"
     style="fill:#1494a1" /><path
     d="m 316.9,284 c 0,0 -35.5,-7.3 -37.8,-11.2 l -3.5,-3.9 -0.2,-1.7 29.1,-29.1 12.4,45.9 z"
     id="path16"
     inkscape:connector-curvature="0"
     style="fill:#1494a1" /><path
     d="m 327,322.2 -10.5,-38.9 c 0,0 -33.5,-6.1 -37.2,-10.2 l -4.1,-4.5 c 0,0 1.3,5.3 4.4,8.5 3.1,3.2 42,42.2 42,42.2 0,0 4.5,2.6 5.4,2.9 z"
     id="path25"
     style="fill:url(#linearGradient3101)"
     inkscape:connector-curvature="0" /><path
     d="m 335.2,323 28.1,-26.6 -46.6,-12.6 10.4,38.4 c -0.1,0 6.2,2.3 8.1,0.8 z"
     id="path34"
     style="fill:url(#linearGradient3103)"
     inkscape:connector-curvature="0" /><path
     d="m 317.1,240.9 38.5,27.5 c 0.5,0.4 1.2,0.2 1.5,-0.3 l 42.8,-77.4 c 0.6,-1.1 -0.9,-2.1 -1.7,-1.1 l -47.7,59 c -0.3,0.3 -0.7,0.5 -1.1,0.3 L 318,239.1 c -1.1,-0.3 -1.8,1.1 -0.9,1.8 z"
     id="path36"
     inkscape:connector-curvature="0"
     style="fill:#5fcbed" /><polygon
     points="365.7,177 378,189.4 359.1,208.3 346.7,196 "
     id="polygon57"
     style="fill:url(#linearGradient3105)" /><polygon
     points="403.3,256.7 390.9,244.4 409.8,225.4 422.1,237.2 "
     id="polygon66"
     style="fill:url(#linearGradient3107)" /></g>
</svg>